#!OML:ASF H:\Dans Jumps\Project 1\Capture day 1\Session 1\subject.ASF
:FULLY-SPECIFIED
:DEGREES
81
root 0.506235 17.4531 -14.511 7.04683 -0.0475746 -1.45943
lowerback 1.10251 -0.719443 0.208176
upperback 4.16265 -1.01798 1.84157
thorax 3.69339 -0.536037 1.75798
lowerneck -10.0362 0.385246 -1.74887
upperneck 28.6544 0.944828 -0.107852
head 10.8595 0.226461 0.377019
rclavicle -5.96354e-015 4.77083e-015
rhumerus -25.6063 -14.3257 -80.332
rradius 25.7529
rwrist 28.8259
rhand -18.6851 -26.5525
rfingers 7.12502
rthumb 7.60909 -56.3956
lclavicle -5.96354e-015 4.77083e-015
lhumerus -20.6033 -0.582411 87.6388
lradius 18.6971
lwrist 6.24684
lhand -26.1627 -3.53114
lfingers 7.12502
lthumb 0.388633 26.4482
rfemur -17.8038 -2.50131 20.1103
rtibia 27.1986
rfoot -14.9425 -3.22258
rtoes 9.86636
lfemur -16.9384 8.12828 -18.4221
ltibia 25.0334
lfoot -12.5306 5.75609
ltoes -1.7215
82
root 0.509146 17.4526 -14.5075 7.03656 -0.0472273 -1.45746
lowerback 1.099 -0.723978 0.218118
upperback 4.1584 -1.02417 1.84332
thorax 3.691 -0.538799 1.75404
lowerneck -10.0104 0.382222 -1.76012
upperneck 28.6174 0.942701 -0.110608
head 10.8404 0.224366 0.377478
rclavicle -3.8763e-015 1.15295e-014
rhumerus -25.6134 -14.3166 -80.3223
rradius 25.7543
rwrist 28.8114
rhand -18.6733 -26.5772
rfingers 7.12502
rthumb 7.62054 -56.4199
lclavicle -3.8763e-015 1.15295e-014
lhumerus -20.5928 -0.540225 87.6221
lradius 18.6754
lwrist 6.21865
lhand -26.1647 -3.52451
lfingers 7.12502
lthumb 0.386633 26.4549
rfemur -17.7835 -2.4938 20.097
rtibia 27.2097
rfoot -14.958 -3.24743
rtoes 9.80245
lfemur -16.9207 8.13907 -18.4333
ltibia 25.0464
lfoot -12.5484 5.75345
ltoes -1.72727
83
root 0.512081 17.4521 -14.504 7.02457 -0.0479669 -1.45543
lowerback 1.09361 -0.727754 0.228849
upperback 4.15756 -1.02942 1.84452
thorax 3.69317 -0.541086 1.74909
lowerneck -9.98949 0.379808 -1.76729
upperneck 28.5828 0.9414 -0.11582
head 10.8232 0.222765 0.376478
rclavicle -9.24349e-015 1.11319e-014
rhumerus -25.6168 -14.32 -80.3092
rradius 25.7487
rwrist 28.8129
rhand -18.6736 -26.5801
rfingers 7.12502
rthumb 7.62024 -56.4228
lclavicle -9.24349e-015 1.11319e-014
lhumerus -20.5807 -0.499807 87.6077
lradius 18.6597
lwrist 6.19778
lhand -26.1617 -3.49842
lfingers 7.12502
lthumb 0.38953 26.481
rfemur -17.761 -2.48879 20.0835
rtibia 27.2204
rfoot -14.9748 -3.26843
rtoes 9.74039
lfemur -16.9016 8.14889 -18.4446
ltibia 25.061
lfoot -12.5669 5.7537
ltoes -1.73324
84
root 0.514949 17.4515 -14.5006 7.01305 -0.0501638 -1.45419
lowerback 1.08725 -0.730887 0.238586
upperback 4.15771 -1.03388 1.84694
thorax 3.69693 -0.54304 1.74594
lowerneck -9.97234 0.378512 -1.77195
upperneck 28.5523 0.942023 -0.123662
head 10.8083 0.221955 0.374359
rclavicle -8.05078e-015 5.56597e-015
rhumerus -25.6194 -14.3335 -80.2909
rradius 25.7395
rwrist 28.8298
rhand -18.6726 -26.5795
rfingers 7.12502
rthumb 7.62116 -56.4222
lclavicle -8.05078e-015 5.56597e-015
lhumerus -20.5684 -0.455307 87.5962
lradius 18.6467
lwrist 6.17806
lhand -26.1525 -3.46454
lfingers 7.12502
lthumb 0.398434 26.5148
rfemur -17.7399 -2.48201 20.0711
rtibia 27.2315
rfoot -14.9926 -3.28885
rtoes 9.68659
lfemur -16.8849 8.15778 -18.4547
ltibia 25.0793
lfoot -12.5887 5.75492
ltoes -1.72414
85
root 0.517659 17.4509 -14.4975 7.00236 -0.0556043 -1.45766
lowerback 1.08168 -0.732764 0.249845
upperback 4.15812 -1.03676 1.85185
thorax 3.70048 -0.544202 1.74457
lowerneck -9.95541 0.378091 -1.77739
upperneck 28.5236 0.944156 -0.131789
head 10.7941 0.221704 0.372462
rclavicle 9.44227e-015 -1.35174e-014
rhumerus -25.6204 -14.3548 -80.2678
rradius 25.7248
rwrist 28.8551
rhand -18.6753 -26.5702
rfingers 7.12502
rthumb 7.61853 -56.413
lclavicle 9.44227e-015 -1.35174e-014
lhumerus -20.5579 -0.412045 87.5883
lradius 18.6378
lwrist 6.16134
lhand -26.1434 -3.44151
lfingers 7.12502
lthumb 0.407211 26.5378
rfemur -17.7217 -2.46793 20.0642
rtibia 27.2436
rfoot -15.0098 -3.31296
rtoes 9.6355
lfemur -16.8732 8.16843 -18.4593
ltibia 25.1035
lfoot -12.6126 5.75857
ltoes -1.71649
86
root 0.520171 17.4501 -14.4946 6.99271 -0.0630171 -1.46447
lowerback 1.07749 -0.733149 0.261818
upperback 4.15819 -1.03767 1.85816
thorax 3.70287 -0.544385 1.74429
lowerneck -9.94067 0.378543 -1.78172
upperneck 28.4994 0.947448 -0.140087
head 10.7821 0.222038 0.370477
rclavicle -1.88845e-014 2.38542e-015
rhumerus -25.6214 -14.3889 -80.2398
rradius 25.7061
rwrist 28.8923
rhand -18.6811 -26.5547
rfingers 7.12502
rthumb 7.61299 -56.3977
lclavicle -1.88845e-014 2.38542e-015
lhumerus -20.5499 -0.376704 87.5839
lradius 18.6345
lwrist 6.1507
lhand -26.1361 -3.43348
lfingers 7.12502
lthumb 0.414261 26.5459
rfemur -17.7077 -2.44721 20.0619
rtibia 27.2578
rfoot -15.0258 -3.34161
rtoes 9.58501
lfemur -16.8671 8.18074 -18.4597
ltibia 25.1337
lfoot -12.6374 5.76453
ltoes -1.72268
87
root 0.522495 17.4491 -14.4922 6.98568 -0.0723257 -1.47492
lowerback 1.07565 -0.731718 0.275779
upperback 4.15682 -1.03614 1.86518
thorax 3.70234 -0.543287 1.74372
lowerneck -9.92747 0.379064 -1.78302
upperneck 28.4785 0.950419 -0.148929
head 10.7716 0.222456 0.367754
rclavicle -7.7526e-015 -8.34896e-015
rhumerus -25.6231 -14.4319 -80.2088
rradius 25.6843
rwrist 28.9349
rhand -18.6858 -26.538
rfingers 7.12502
rthumb 7.6084 -56.3811
lclavicle -7.7526e-015 -8.34896e-015
lhumerus -20.5441 -0.355252 87.583
lradius 18.6353
lwrist 6.14949
lhand -26.1373 -3.44924
lfingers 7.12502
lthumb 0.413106 26.5301
rfemur -17.7001 -2.42019 20.0643
rtibia 27.2743
rfoot -15.0403 -3.37521
rtoes 9.53014
lfemur -16.8688 8.19231 -18.4559
ltibia 25.1699
lfoot -12.6613 5.77536
ltoes -1.73983
